<svg xmlns="http://www.w3.org/2000/svg" viewBox="0 0 24 24" width="12" height="12">
  <path fill="#fff" d="M12 0C5.37 0 0 5.37 0 12c0 5.31 3.435 9.795 8.205 11.385.6.105.825-.255.825-.57 0-.285-.015-1.23-.015-2.235-3.015.945-3.69-1.26-3.69-1.26-.546-1.365-1.335-1.73-1.335-1.73-1.08-.735.105-.72.105-.72 1.23.105 1.875 1.32 1.875 1.32 1.065 1.815 2.625 1.29 3.27.99.105-.765.42-1.29.765-1.59-2.52-.285-5.175-1.26-5.175-5.61 0-1.26.465-2.265 1.2-3.09-.12-.285-.54-1.56.12-3.03 0 0 .975-.315 3.15 1.185.93-.255 1.905-.39 2.895-.39.99 0 1.955.135 2.895.39 2.175-1.5 3.15-1.185 3.15-1.185.66 1.47.24 2.745.12 3.03.735.825 1.2 1.83 1.2 3.09.42.36.795 1.05.795 2.175 0 1.575-.015 2.85-.015 3.14.225.69.825.57.825.57C20.565 21.795 24 17.31 24 12c0-6.63-5.37-12-12-12z"/>
</svg>